<?xml version="1.0" encoding="utf-8"?>
<!-- Generator: Adobe Illustrator 24.0.0, SVG Export Plug-In . SVG Version: 6.00 Build 0)  -->
<svg version="1.1" xmlns="http://www.w3.org/2000/svg" xmlns:xlink="http://www.w3.org/1999/xlink" x="0px" y="0px"
	 viewBox="0 0 256 256" style="enable-background:new 0 0 256 256;" xml:space="preserve">
<style type="text/css">
	.st0{fill:#F98FA6;}
	.st1{fill:#FC657E;}
	.st2{fill:#DAE6F1;}
	.st3{fill:#5290DB;}
	.st4{fill:#FCDD86;}
	.st5{fill:#F5C84C;}
	.st6{fill:#87D147;}
	.st7{fill:#70D6F9;}
	.st8{fill:#EDF4FC;}
	.st9{fill:#9BE5F9;}
	.st10{fill:#B2E26D;}
	.st11{fill:#F9C1A8;}
	.st12{fill:#414344;}
	.st13{fill:#E1FBFF;}
	.st14{fill:#FFE3EC;}
	.st15{fill:#FCBECF;}
	.st16{fill:#EF4460;}
	.st17{fill:#80C2F9;}
	.st18{fill:#3A70BF;}
	.st19{fill:#FCA265;}
	.st20{fill:#5B5D60;}
	.st21{fill:#818182;}
	.st22{fill:#C7D7E5;}
	.st23{fill:#F9D0B4;}
	.st24{fill:#AA6F59;}
	.st25{fill:#D1856D;}
	.st26{fill:#FCC29A;}
	.st27{fill:#29589F;}
	.st28{fill:#F7B386;}
	.st29{fill:#FC8C48;}
	.st30{fill:#FFF0CC;}
	.st31{fill:#57AF12;}
	.st32{fill:#3CAADC;}
	.st33{fill:#EDB311;}
	.st34{fill:#231F20;}
</style>
<g id="Layer_1">
</g>
<g id="Layer_2">
</g>
<g id="Layer_3">
</g>
<g id="Layer_4">
</g>
<g id="Layer_5">
</g>
<g id="Layer_6">
</g>
<g id="Layer_7">
</g>
<g id="Layer_8">
</g>
<g id="Layer_9">
</g>
<g id="Layer_10">
</g>
<g id="Layer_11">
</g>
<g id="Layer_12">
</g>
<g id="Layer_13">
</g>
<g id="Layer_14">
</g>
<g id="Layer_15">
</g>
<g id="Layer_16">
</g>
<g id="Layer_17">
</g>
<g id="Layer_18">
</g>
<g id="Layer_19">
</g>
<g id="Layer_20">
</g>
<g id="Layer_21">
</g>
<g id="Layer_22">
</g>
<g id="Layer_23">
</g>
<g id="Layer_24">
</g>
<g id="Layer_25">
</g>
<g id="Layer_26">
</g>
<g id="Layer_27">
</g>
<g id="Layer_28">
</g>
<g id="Layer_29">
</g>
<g id="Layer_30">
</g>
<g id="Layer_31">
</g>
<g id="Layer_32">
</g>
<g id="Layer_33">
</g>
<g id="Layer_34">
</g>
<g id="Layer_35">
</g>
<g id="Layer_36">
</g>
<g id="Layer_37">
</g>
<g id="Layer_38">
</g>
<g id="Layer_39">
</g>
<g id="Layer_40">
</g>
<g id="Layer_41">
</g>
<g id="Layer_42">
</g>
<g id="Layer_43">
</g>
<g id="Layer_44">
</g>
<g id="Layer_45">
</g>
<g id="Layer_46">
</g>
<g id="Layer_47">
</g>
<g id="Layer_48">
</g>
<g id="Layer_49">
</g>
<g id="Layer_50">
</g>
<g id="Layer_51">
</g>
<g id="Layer_52">
</g>
<g id="Layer_53">
</g>
<g id="Layer_54">
</g>
<g id="Layer_55">
</g>
<g id="Layer_56">
</g>
<g id="Layer_57">
</g>
<g id="Layer_58">
</g>
<g id="Layer_59">
</g>
<g id="Layer_60">
</g>
<g id="Layer_61">
</g>
<g id="Layer_62">
</g>
<g id="Layer_63">
</g>
<g id="Layer_64">
</g>
<g id="Layer_65">
	<g>
		<g>
			<g>
				<path class="st5" d="M211.444,68.505c-4.498-0.838-8.042-4.311-8.898-8.717c-0.043-0.221-0.352-0.221-0.395,0
					c-0.855,4.406-4.4,7.879-8.898,8.717c-0.226,0.042-0.226,0.344,0,0.387c4.498,0.837,8.042,4.31,8.898,8.716
					c0.043,0.221,0.352,0.221,0.395,0c0.855-4.406,4.4-7.879,8.898-8.716C211.67,68.85,211.67,68.547,211.444,68.505z"/>
			</g>
		</g>
		<g>
			<g>
				<path class="st1" d="M92.881,111.855c-3.156-0.588-5.643-3.024-6.243-6.115c-0.03-0.155-0.247-0.155-0.277,0
					c-0.6,3.091-3.087,5.528-6.243,6.115c-0.158,0.03-0.158,0.242,0,0.271c3.156,0.588,5.643,3.024,6.243,6.116
					c0.03,0.155,0.247,0.155,0.277,0c0.6-3.091,3.087-5.528,6.243-6.116C93.04,112.097,93.04,111.884,92.881,111.855z"/>
			</g>
		</g>
		<g>
			<g>
				<path class="st7" d="M117.155,222.925h-2.329v-2.33c0-1.744-1.413-3.157-3.157-3.157c-1.744,0-3.157,1.414-3.157,3.157v2.33
					h-2.33c-1.744,0-3.157,1.413-3.157,3.157c0,1.744,1.413,3.157,3.157,3.157h2.33v2.33c0,1.744,1.413,3.157,3.157,3.157
					c1.744,0,3.157-1.413,3.157-3.157v-2.33h2.329c1.744,0,3.157-1.413,3.157-3.157
					C120.313,224.338,118.899,222.925,117.155,222.925z"/>
			</g>
		</g>
		<g>
			<g>
				<circle class="st5" cx="83.461" cy="235" r="3.377"/>
			</g>
		</g>
		<g>
			<g>
				<circle class="st6" cx="190.461" cy="46" r="3.377"/>
			</g>
		</g>
		<g>
			<g>
				<path class="st7" d="M70.223,133.853H5.135c-1.455,0-2.635,1.18-2.635,2.635v80.27c0,1.455,1.18,2.635,2.635,2.635h65.088
					c1.455,0,2.635-1.18,2.635-2.635v-80.27C72.858,135.033,71.678,133.853,70.223,133.853z"/>
			</g>
		</g>
		<g>
			<g>
				<path class="st2" d="M85.024,138.999H72.858v73.962h12.166c1.455,0,2.635-1.18,2.635-2.635v-68.693
					C87.659,140.178,86.479,138.999,85.024,138.999z"/>
			</g>
		</g>
		<g>
			<g>
				<path class="st23" d="M252.344,161.392c-2.701-5.466-9.287-7.755-14.796-5.142l-43.627,20.699l-0.03,0.007
					c2.843-1.936,4.706-4.449,4.706-7.73c0-14.149-18.651-11.576-33.444-11.576c-9.166,0-23.64-4.938-33.325-8.695
					c-6.991-2.712-14.529-3.702-21.986-2.919l-22.179,2.327l-0.004,51.732l9.457-1.026c9.406-1.02,18.919-0.314,28.071,2.084
					l30.4,7.966c17.256,4.522,35.598,2.062,51.053-6.847l41.687-26.514C253.137,172.698,254.869,166.504,252.344,161.392z"/>
			</g>
		</g>
		<g>
			<g>
				<g>
					<path d="M70.224,131.354H5.135c-2.831,0-5.135,2.304-5.135,5.135v80.27c0,2.831,2.304,5.135,5.135,5.135h65.089
						c2.831,0,5.135-2.304,5.135-5.135v-80.27C75.358,133.657,73.055,131.354,70.224,131.354z M70.358,216.758
						c0,0.074-0.061,0.135-0.135,0.135H5.135c-0.074,0-0.135-0.061-0.135-0.135v-80.27c0-0.074,0.061-0.135,0.135-0.135h65.089
						c0.074,0,0.135,0.061,0.135,0.135V216.758z"/>
				</g>
			</g>
		</g>
		<g>
			<g>
				<path d="M85.023,136.498H73.656c-1.381,0-2.5,1.119-2.5,2.5s1.119,2.5,2.5,2.5h11.367c0.074,0,0.135,0.061,0.135,0.135v68.693
					c0,0.074-0.061,0.135-0.135,0.135H73.625c-1.381,0-2.5,1.119-2.5,2.5s1.119,2.5,2.5,2.5h11.398c2.831,0,5.135-2.304,5.135-5.135
					v-68.693C90.158,138.802,87.854,136.498,85.023,136.498z"/>
			</g>
		</g>
		<g>
			<g>
				<path d="M254.585,160.285c-3.284-6.649-11.411-9.475-18.108-6.294l-43.627,20.7c-1.248,0.592-1.779,2.083-1.188,3.33
					s2.081,1.78,3.33,1.188l43.627-20.7c4.252-2.017,9.4-0.225,11.483,3.991c1.964,3.976,0.624,8.769-3.118,11.148l-41.642,26.484
					c-14.97,8.613-32.414,10.946-49.123,6.568l-30.399-7.966c-9.48-2.484-19.228-3.209-28.975-2.151l-8.614,0.935
					c-1.373,0.148-2.365,1.383-2.216,2.755c0.148,1.372,1.366,2.365,2.755,2.216l8.614-0.935c9.138-0.992,18.279-0.313,27.168,2.017
					l30.399,7.966c17.982,4.714,36.788,2.209,52.936-7.1c0.031-0.019,0.063-0.037,0.093-0.057l41.688-26.514
					C255.569,174.114,257.683,166.556,254.585,160.285z"/>
			</g>
		</g>
		<g>
			<g>
				<path d="M197.548,159.984c-5.512-5.39-16.142-5.15-26.429-4.925c-1.984,0.044-4.036,0.09-5.966,0.09
					c-6.733,0-18.248-3.027-32.421-8.525c-7.307-2.834-15.313-3.898-23.151-3.075l-21.342,2.24c-1.373,0.145-2.37,1.374-2.226,2.747
					c0.145,1.374,1.363,2.383,2.747,2.226l21.342-2.24c7.052-0.738,14.253,0.215,20.821,2.765
					c10.425,4.043,24.825,8.863,34.229,8.863c1.984,0,4.065-0.046,6.077-0.091c8.819-0.196,18.814-0.418,22.821,3.501
					c1.376,1.346,2.045,3.199,2.045,5.667c0,9.496-23.631,11.646-31.909,11.649c-1.38,0.001-2.499,1.12-2.499,2.501
					c0.001,1.38,1.119,2.499,2.5,2.499c3.777,0,36.908-0.467,36.908-16.649C201.097,165.397,199.902,162.288,197.548,159.984z"/>
			</g>
		</g>
		<g>
			<g>
				<g>
					<path class="st2" d="M161.724,20.123h-49.447c-7.892,0-14.349,6.457-14.349,14.349v49.447c0,7.892,6.457,14.349,14.349,14.349
						h49.447c7.892,0,14.349-6.457,14.349-14.349V34.472C176.073,26.58,169.615,20.123,161.724,20.123z"/>
				</g>
			</g>
			<g>
				<g>
					<path class="st1" d="M156.456,51.274h-8.445c-1.706,0-3.089-1.383-3.089-3.089V39.74c0-1.706-1.383-3.089-3.089-3.089h-9.664
						c-1.706,0-3.089,1.383-3.089,3.089v8.445c0,1.706-1.383,3.089-3.089,3.089h-8.445c-1.706,0-3.089,1.383-3.089,3.09v9.663
						c0,1.706,1.383,3.089,3.089,3.089h8.445c1.706,0,3.089,1.383,3.089,3.09v8.445c0,1.706,1.383,3.09,3.089,3.09h9.664
						c1.706,0,3.089-1.383,3.089-3.09v-8.445c0-1.707,1.383-3.09,3.089-3.09h8.445c1.706,0,3.089-1.383,3.089-3.089v-9.663
						C159.545,52.657,158.162,51.274,156.456,51.274z"/>
				</g>
			</g>
			<g>
				<g>
					<g>
						<path d="M161.724,17.623h-49.447c-9.29,0-16.849,7.559-16.849,16.849v49.447c0,9.29,7.559,16.849,16.849,16.849h49.447
							c9.29,0,16.849-7.559,16.849-16.849V34.472C178.572,25.182,171.014,17.623,161.724,17.623z M173.572,83.919
							c0,6.533-5.315,11.849-11.849,11.849h-49.447c-6.533,0-11.849-5.315-11.849-11.849V34.472c0-6.533,5.315-11.849,11.849-11.849
							h49.447c6.533,0,11.849,5.315,11.849,11.849V83.919z"/>
					</g>
				</g>
			</g>
			<g>
				<g>
					<g>
						<path d="M156.455,48.774h-8.444c-0.325,0-0.59-0.265-0.59-0.59V39.74c0-3.082-2.507-5.59-5.589-5.59h-9.664
							c-3.082,0-5.589,2.508-5.589,5.59v8.444c0,0.325-0.265,0.59-0.59,0.59h-8.444c-3.082,0-5.59,2.507-5.59,5.589v9.664
							c0,3.082,2.508,5.589,5.59,5.589h8.444c0.325,0,0.59,0.265,0.59,0.59v8.444c0,3.082,2.507,5.59,5.589,5.59h9.664
							c3.082,0,5.589-2.508,5.589-5.59v-8.444c0-0.325,0.265-0.59,0.59-0.59h8.444c3.082,0,5.59-2.507,5.59-5.589v-9.664
							C162.045,51.281,159.537,48.774,156.455,48.774z M157.045,64.027c0,0.324-0.265,0.589-0.59,0.589h-8.444
							c-3.082,0-5.59,2.508-5.59,5.59v8.444c0,0.325-0.265,0.59-0.589,0.59h-9.664c-0.324,0-0.589-0.265-0.589-0.59v-8.444
							c0-3.082-2.508-5.59-5.59-5.59h-8.444c-0.325,0-0.59-0.265-0.59-0.589v-9.664c0-0.324,0.265-0.589,0.59-0.589h8.444
							c3.082,0,5.59-2.508,5.59-5.59V39.74c0-0.325,0.265-0.59,0.589-0.59h9.664c0.324,0,0.589,0.265,0.589,0.59v8.444
							c0,3.082,2.508,5.59,5.59,5.59h8.444c0.325,0,0.59,0.265,0.59,0.589V64.027z"/>
					</g>
				</g>
			</g>
		</g>
		<g>
			<g>
				
					<ellipse transform="matrix(0.3827 -0.9239 0.9239 0.3827 -15.5958 232.2608)" class="st1" cx="166.003" cy="127.801" rx="15.405" ry="15.405"/>
			</g>
		</g>
		<g>
			<g>
				<path class="st7" d="M223.366,97.042c-3.695-3.695-9.685-3.695-13.38,0l-16.767,16.767c-3.695,3.695-3.695,9.686,0,13.38
					c3.695,3.695,9.685,3.695,13.38,0l16.767-16.767C227.061,106.728,227.061,100.737,223.366,97.042z"/>
			</g>
		</g>
		<g>
			<g>
				<path class="st5" d="M166.003,112.396c-8.508,0-15.405,6.897-15.405,15.405h30.81
					C181.409,119.292,174.511,112.396,166.003,112.396z"/>
			</g>
		</g>
		<g>
			<g>
				<path class="st32" d="M201.603,105.426l-8.383,8.383c-3.695,3.695-3.695,9.686,0,13.38c3.695,3.695,9.685,3.695,13.38,0
					l8.383-8.383L201.603,105.426z"/>
			</g>
		</g>
		<g>
			<g>
				<g>
					<path d="M166.003,109.896c-9.872,0-17.904,8.032-17.904,17.905s8.032,17.905,17.904,17.905c9.873,0,17.905-8.032,17.905-17.905
						S175.876,109.896,166.003,109.896z M166.003,140.706c-7.115,0-12.904-5.789-12.904-12.905s5.789-12.905,12.904-12.905
						c7.116,0,12.905,5.789,12.905,12.905S173.119,140.706,166.003,140.706z"/>
				</g>
			</g>
		</g>
		<g>
			<g>
				<g>
					<path d="M225.134,95.274c-4.664-4.663-12.251-4.665-16.915,0l-16.767,16.767c-4.664,4.664-4.664,12.252,0,16.916
						c4.664,4.664,12.251,4.664,16.915,0l16.767-16.767C229.798,107.526,229.798,99.938,225.134,95.274z M221.599,108.655
						l-16.767,16.767c-2.717,2.713-7.132,2.712-9.845,0c-2.731-2.733-2.709-7.134,0-9.846l16.767-16.767
						c1.314-1.314,3.063-2.038,4.922-2.038c1.86,0,3.608,0.724,4.923,2.038C224.313,101.524,224.313,105.94,221.599,108.655z"/>
				</g>
			</g>
		</g>
		<g>
			<g>
				<path d="M180.625,125.301h-29.219c-1.381,0-2.5,1.119-2.5,2.5s1.119,2.5,2.5,2.5h29.219c1.381,0,2.5-1.119,2.5-2.5
					S182.006,125.301,180.625,125.301z"/>
			</g>
		</g>
		<g>
			<g>
				<path d="M216.087,116.375l-12.229-12.23c-0.977-0.977-2.559-0.977-3.535,0c-0.977,0.976-0.977,2.559,0,3.535l12.229,12.23
					c0.488,0.488,1.128,0.732,1.768,0.732s1.279-0.244,1.768-0.732C217.063,118.935,217.063,117.352,216.087,116.375z"/>
			</g>
		</g>
	</g>
</g>
<g id="Layer_66">
</g>
<g id="Layer_67">
</g>
<g id="Layer_68">
</g>
<g id="Layer_69">
</g>
<g id="Layer_70">
</g>
<g id="Layer_71">
</g>
<g id="Layer_72">
</g>
<g id="Layer_73">
</g>
<g id="Layer_74">
</g>
<g id="Layer_75">
</g>
<g id="Layer_76">
</g>
<g id="Layer_77">
</g>
<g id="Layer_78">
</g>
<g id="Layer_79">
</g>
<g id="Layer_80">
</g>
<g id="Layer_81">
</g>
<g id="Layer_82">
</g>
<g id="Layer_83">
</g>
<g id="Layer_84">
</g>
<g id="Layer_85">
</g>
</svg>
